<svg width="42" height="40" viewBox="0 0 42 40" fill="none" xmlns="http://www.w3.org/2000/svg">
<path d="M29.6092 2.64931L29.6146 2.5357C29.6482 1.8629 29.4217 1.23516 28.9781 0.769399C28.386 0.147695 27.4638 -0.121774 26.5014 0.0516156L16.1402 1.91739C15.6261 1.28833 14.8968 0.919968 14.1098 0.919968C13.4511 0.919968 12.7972 1.18009 12.2689 1.65189L3.8313 9.1875C3.19818 9.75339 2.84528 10.5377 2.8648 11.3409C2.86951 11.5519 2.90374 11.7596 2.95823 11.9626C2.39168 12.3659 1.97759 13.0252 1.84389 13.8351L0.25908 23.4645L0.14481 23.4611L0.221458 23.6903L0.0440176 24.7663C-0.0991091 25.6381 0.110579 26.4809 0.618013 27.079C0.914437 27.4285 1.29685 27.6624 1.72226 27.7921C3.52553 32.1533 7.27047 39.5701 11.8879 39.5701C12.5687 39.5701 13.2422 39.4101 13.8901 39.0949C16.5974 37.7762 16.3574 31.5263 15.8842 27.4486L15.901 27.4479C17.3373 27.3989 18.7319 26.1433 19.0774 24.5888L19.187 24.0934C19.769 23.9906 20.3114 23.7601 20.755 23.4126L23.7667 21.0508C24.174 20.7309 24.4797 20.3176 24.6989 19.8639L25.9013 19.716C27.2589 19.5493 28.3995 18.5849 28.7739 17.3986C31.0113 18.0318 34.179 18.7839 36.622 18.7839C36.6227 18.7839 36.6227 18.7839 36.6234 18.7839C38.5751 18.7839 39.8353 18.308 40.4752 17.3294C41.1957 16.2265 41.3852 14.9838 41.0385 13.6355C39.9187 9.28631 33.0599 4.71262 29.6092 2.64931ZM38.7882 16.2278C38.7055 16.3548 38.3036 16.7696 36.624 16.7696C36.6234 16.7696 36.6234 16.7696 36.6234 16.7696C34.2999 16.7696 31.11 15.9765 28.9775 15.3588L29.4956 4.93918C33.201 7.25459 38.2841 11.021 39.0873 14.1403C39.2896 14.9273 39.1915 15.6102 38.7882 16.2278ZM26.896 16.6123C26.8926 16.6802 26.8745 16.7501 26.8496 16.8213C26.7071 17.2239 26.2366 17.646 25.6559 17.7166L25.0275 17.7939C24.967 17.3919 24.8353 16.9994 24.6283 16.6379L17.2526 3.76564L26.1782 2.15792L26.859 2.03563C26.9342 2.02215 27.0082 2.01545 27.0781 2.01545C27.2703 2.01545 27.4303 2.06788 27.5177 2.15932C27.5405 2.18355 27.6098 2.25681 27.601 2.43623L27.5903 2.64931L26.937 15.7897L26.896 16.6123ZM22.5226 19.4661L21.6038 20.1866L19.728 21.6578L19.5108 21.8279C19.2743 22.0133 18.9368 22.1082 18.592 22.1222C18.2385 22.1364 17.881 22.0604 17.6094 21.8951C17.5658 21.8682 17.5194 21.844 17.4803 21.8124L10.3641 16.0538L7.58492 13.8049L5.20361 11.878C5.12225 11.8121 5.05974 11.7382 5.00872 11.6616C4.93141 11.546 4.88436 11.421 4.88172 11.2926C4.87634 11.0795 4.98053 10.8664 5.17541 10.6924L13.6117 3.156C13.7132 3.0653 13.8187 3.01213 13.9249 2.9779C13.9868 2.95773 14.0493 2.93623 14.1104 2.93623C14.3315 2.93623 14.5338 3.07605 14.6783 3.32807L14.7859 3.5156L15.3733 4.54122L22.8794 17.6393C22.9493 17.7615 22.9923 17.8981 23.0185 18.0399C23.0817 18.3866 23.0205 18.7671 22.8478 19.0762C22.7632 19.2275 22.655 19.3619 22.5226 19.4661ZM17.1081 24.154C16.9502 24.8679 16.3042 25.419 15.8324 25.4351L15.6127 25.4424L14.5937 25.4774L8.15834 25.6978L3.1236 25.8699L2.45146 25.8927L2.43335 26.827L2.43137 26.8955V26.8236V25.8927C2.31172 25.8927 2.22366 25.8551 2.15578 25.7752C2.03349 25.6313 1.98842 25.3766 2.03481 25.0943L2.12891 24.5244L2.29427 23.5203L3.83477 14.1625C3.87843 13.8951 3.98939 13.6887 4.12441 13.598L16.2116 23.3798C16.4925 23.6069 16.8165 23.7804 17.1619 23.91L17.1081 24.154ZM13.0069 37.2836C12.6312 37.4664 12.2649 37.5551 11.8878 37.5551C9.09722 37.5551 5.99076 32.523 3.94217 27.858L13.8524 27.5199C14.3813 32.1534 14.212 36.6969 13.0069 37.2836Z" fill="white"/>
</svg>
