<svg width="24" height="43" viewBox="0 0 24 43" fill="none" xmlns="http://www.w3.org/2000/svg">
<path d="M24 15.4742C24 13.6786 22.883 12.1499 21.3331 11.5951C21.5919 11.0497 21.7379 10.4365 21.7379 9.78846C21.7379 7.52626 19.9656 5.68583 17.7872 5.68583H16.79C15.9541 5.68583 15.2516 5.03562 15.1558 4.17327L14.6923 0H11.5258C9.64133 0 7.90699 0.856305 6.76757 2.34946C6.02386 3.32402 5.59143 4.49258 5.50222 5.7536C3.66195 6.10231 2.26211 7.7783 2.26211 9.78846C2.26211 10.4366 2.40809 11.0497 2.66688 11.5951C1.11694 12.1499 0 13.6787 0 15.4742C0 16.872 0.677072 18.108 1.70797 18.849L8.91985 43H15.0802L22.2921 18.8491C23.323 18.108 24 16.872 24 15.4742ZM3.95067 13.8911H11.7495V11.3716H6.2127C5.3721 11.3716 4.68823 10.6614 4.68823 9.78846C4.68823 8.91553 5.3721 8.20536 6.2127 8.20536H9.6393V5.68583H7.9467C8.03283 5.02579 8.27432 4.4316 8.66898 3.91434C9.33554 3.04091 10.4035 2.51953 11.5258 2.51953H12.5299L12.7457 4.46201C12.9827 6.59605 14.7214 8.20536 16.7901 8.20536H17.7873C18.6279 8.20536 19.3118 8.91553 19.3118 9.78846C19.3118 10.6614 18.6279 11.3716 17.7873 11.3716H16.0307V13.8911H20.0493C20.8899 13.8911 21.5738 14.6014 21.5738 15.4743C21.5738 16.3472 20.8899 17.0574 20.0493 17.0574H3.95067C3.11007 17.0574 2.4262 16.3472 2.4262 15.4743C2.4262 14.6014 3.11007 13.8911 3.95067 13.8911ZM13.2924 40.4805H10.7076L4.46543 19.5769H19.5345L13.2924 40.4805Z" fill="white"/>
</svg>
