<svg width="49" height="49" viewBox="0 0 49 49" fill="none" xmlns="http://www.w3.org/2000/svg">
<mask id="path-1-inside-1_736_59" fill="white">
<path d="M47.9138 46.7304C48.1534 46.4749 48.2262 46.1042 48.0997 45.7775L33.6212 8.21842C34.3929 6.88114 34.539 5.20612 33.8657 3.69036C32.7477 1.17435 29.7912 0.0368083 27.275 1.15474C21.342 3.7911 16.0659 7.51382 11.5933 12.2198C7.12078 16.9258 3.67099 22.3843 1.33974 28.4437C1.09769 29.0729 0.992009 29.7215 1.00817 30.357C1.05811 32.3167 2.26671 34.1505 4.20721 34.8969C5.5128 35.3992 6.90204 35.3132 8.083 34.771L46.9747 46.9768C47.309 47.0817 47.674 46.986 47.9138 46.7304ZM33.8758 13.9547L35.4102 17.9352C34.9197 18.4196 34.2339 18.6671 33.532 18.5928C32.9139 18.5273 32.3583 18.2251 31.9675 17.7418C31.5767 17.2586 31.3977 16.6524 31.463 16.034C31.5285 15.416 31.8305 14.8605 32.3139 14.4697C32.7592 14.1096 33.3091 13.9297 33.8758 13.9547ZM4.86287 33.1929C3.23268 32.5658 2.41665 30.7291 3.04398 29.0992C7.58648 17.2919 16.4553 7.9603 28.0164 2.82327C28.7896 2.47971 29.6502 2.45783 30.4399 2.76163C31.2296 3.06543 31.8536 3.65853 32.1972 4.43171C32.5407 5.20489 32.5626 6.0656 32.2588 6.85525C31.955 7.64489 31.3619 8.26894 30.5888 8.6125C25.6401 10.8113 21.2394 13.9165 17.5088 17.8418C13.7782 21.7671 10.9008 26.3199 8.95639 31.374C8.32935 33.0041 6.49288 33.8202 4.86287 33.1929ZM32.7418 40.5964C32.7417 40.5138 32.7443 40.431 32.753 40.3482C32.8185 39.7303 33.1207 39.1747 33.6039 38.784C34.0871 38.3933 34.6938 38.2141 35.3117 38.2795C36.5875 38.4146 37.5154 39.5621 37.3806 40.8383C37.3389 41.232 37.196 41.6043 36.9725 41.9244L32.7418 40.5964ZM38.7623 42.4858C38.9931 42.0351 39.1419 41.5425 39.1961 41.0305C39.438 38.7533 37.7808 36.705 35.5038 36.4639C34.4009 36.3472 33.3185 36.6669 32.456 37.3643C31.6252 38.036 31.0953 38.9809 30.9532 40.0351L25.6035 38.3563L27.151 36.2297C27.4475 35.8221 27.3577 35.251 26.95 34.9545C26.5423 34.6578 25.9714 34.7479 25.6748 35.1555L23.7654 37.7795L9.85181 33.413C10.1858 33.0086 10.462 32.5457 10.6605 32.0299C14.4205 22.2569 21.761 14.5332 31.3301 10.2814C31.6629 10.1336 31.9708 9.95262 32.2534 9.74573L33.1868 12.1673C32.4527 12.2713 31.7576 12.5718 31.1661 13.0501C30.3036 13.7474 29.7643 14.739 29.6476 15.8419C29.6281 16.0267 29.6207 16.2106 29.6253 16.3933C29.6484 17.3011 29.9673 18.1717 30.5478 18.8898C31.2453 19.7524 32.2367 20.2916 33.3398 20.4084C34.33 20.5132 35.3017 20.258 36.0983 19.7203L40.4314 30.961L39.4044 31.4173C39.0567 31.5718 38.8532 31.917 38.8623 32.2751C38.8652 32.3914 38.8907 32.5091 38.9409 32.6222C39.1455 33.0828 39.6851 33.2904 40.1458 33.0857L41.0889 32.6667L45.7153 44.6681L38.7623 42.4858Z"/>
</mask>
<path d="M47.9138 46.7304C48.1534 46.4749 48.2262 46.1042 48.0997 45.7775L33.6212 8.21842C34.3929 6.88114 34.539 5.20612 33.8657 3.69036C32.7477 1.17435 29.7912 0.0368083 27.275 1.15474C21.342 3.7911 16.0659 7.51382 11.5933 12.2198C7.12078 16.9258 3.67099 22.3843 1.33974 28.4437C1.09769 29.0729 0.992009 29.7215 1.00817 30.357C1.05811 32.3167 2.26671 34.1505 4.20721 34.8969C5.5128 35.3992 6.90204 35.3132 8.083 34.771L46.9747 46.9768C47.309 47.0817 47.674 46.986 47.9138 46.7304ZM33.8758 13.9547L35.4102 17.9352C34.9197 18.4196 34.2339 18.6671 33.532 18.5928C32.9139 18.5273 32.3583 18.2251 31.9675 17.7418C31.5767 17.2586 31.3977 16.6524 31.463 16.034C31.5285 15.416 31.8305 14.8605 32.3139 14.4697C32.7592 14.1096 33.3091 13.9297 33.8758 13.9547ZM4.86287 33.1929C3.23268 32.5658 2.41665 30.7291 3.04398 29.0992C7.58648 17.2919 16.4553 7.9603 28.0164 2.82327C28.7896 2.47971 29.6502 2.45783 30.4399 2.76163C31.2296 3.06543 31.8536 3.65853 32.1972 4.43171C32.5407 5.20489 32.5626 6.0656 32.2588 6.85525C31.955 7.64489 31.3619 8.26894 30.5888 8.6125C25.6401 10.8113 21.2394 13.9165 17.5088 17.8418C13.7782 21.7671 10.9008 26.3199 8.95639 31.374C8.32935 33.0041 6.49288 33.8202 4.86287 33.1929ZM32.7418 40.5964C32.7417 40.5138 32.7443 40.431 32.753 40.3482C32.8185 39.7303 33.1207 39.1747 33.6039 38.784C34.0871 38.3933 34.6938 38.2141 35.3117 38.2795C36.5875 38.4146 37.5154 39.5621 37.3806 40.8383C37.3389 41.232 37.196 41.6043 36.9725 41.9244L32.7418 40.5964ZM38.7623 42.4858C38.9931 42.0351 39.1419 41.5425 39.1961 41.0305C39.438 38.7533 37.7808 36.705 35.5038 36.4639C34.4009 36.3472 33.3185 36.6669 32.456 37.3643C31.6252 38.036 31.0953 38.9809 30.9532 40.0351L25.6035 38.3563L27.151 36.2297C27.4475 35.8221 27.3577 35.251 26.95 34.9545C26.5423 34.6578 25.9714 34.7479 25.6748 35.1555L23.7654 37.7795L9.85181 33.413C10.1858 33.0086 10.462 32.5457 10.6605 32.0299C14.4205 22.2569 21.761 14.5332 31.3301 10.2814C31.6629 10.1336 31.9708 9.95262 32.2534 9.74573L33.1868 12.1673C32.4527 12.2713 31.7576 12.5718 31.1661 13.0501C30.3036 13.7474 29.7643 14.739 29.6476 15.8419C29.6281 16.0267 29.6207 16.2106 29.6253 16.3933C29.6484 17.3011 29.9673 18.1717 30.5478 18.8898C31.2453 19.7524 32.2367 20.2916 33.3398 20.4084C34.33 20.5132 35.3017 20.258 36.0983 19.7203L40.4314 30.961L39.4044 31.4173C39.0567 31.5718 38.8532 31.917 38.8623 32.2751C38.8652 32.3914 38.8907 32.5091 38.9409 32.6222C39.1455 33.0828 39.6851 33.2904 40.1458 33.0857L41.0889 32.6667L45.7153 44.6681L38.7623 42.4858Z" fill="white"/>
<path d="M47.9138 46.7304L50.1016 48.7831L50.102 48.7827L47.9138 46.7304ZM48.0997 45.7775L45.3005 46.8566L45.302 46.8605L48.0997 45.7775ZM33.6212 8.21842L31.0228 6.71892L30.3065 7.96023L30.822 9.29748L33.6212 8.21842ZM33.8657 3.69036L36.6074 2.47255L36.6072 2.47213L33.8657 3.69036ZM27.275 1.15474L26.0569 -1.58684L26.0567 -1.58678L27.275 1.15474ZM1.33974 28.4437L-1.46019 27.3664L-1.46027 27.3667L1.33974 28.4437ZM1.00817 30.357L-1.99086 30.4333L-1.99085 30.4334L1.00817 30.357ZM4.20721 34.8969L5.28434 32.0969L5.28427 32.0969L4.20721 34.8969ZM8.083 34.771L8.98131 31.9087L7.88012 31.5631L6.83123 32.0447L8.083 34.771ZM46.9747 46.9768L46.0763 49.8391L46.0764 49.8391L46.9747 46.9768ZM33.8758 13.9547L36.6751 12.8757L35.969 11.0439L34.0077 10.9576L33.8758 13.9547ZM35.4102 17.9352L37.5182 20.0697L38.916 18.6893L38.2094 16.8563L35.4102 17.9352ZM33.532 18.5928L33.2155 21.5761L33.2162 21.5761L33.532 18.5928ZM31.463 16.034L28.4797 15.7179L28.4796 15.7191L31.463 16.034ZM32.3139 14.4697L34.2001 16.8025L34.2001 16.8025L32.3139 14.4697ZM4.86287 33.1929L5.94027 30.3931L5.94002 30.393L4.86287 33.1929ZM3.04398 29.0992L5.84374 30.1769L5.84392 30.1764L3.04398 29.0992ZM28.0164 2.82327L29.2346 5.56481L29.2346 5.56481L28.0164 2.82327ZM30.4399 2.76163L31.5172 -0.038294L31.5171 -0.0383385L30.4399 2.76163ZM30.5888 8.6125L31.8069 11.3541L31.8069 11.354L30.5888 8.6125ZM8.95639 31.374L6.15647 30.2967L6.15639 30.297L8.95639 31.374ZM32.7418 40.5964L29.7418 40.5998L29.7443 42.7999L31.8434 43.4588L32.7418 40.5964ZM32.753 40.3482L29.7697 40.0322L29.7693 40.0357L32.753 40.3482ZM33.6039 38.784L35.49 41.117L35.4903 41.1167L33.6039 38.784ZM35.3117 38.2795L35.6276 35.2962L35.6273 35.2961L35.3117 38.2795ZM37.3806 40.8383L40.3639 41.1541L40.3639 41.1535L37.3806 40.8383ZM36.9725 41.9244L36.0741 44.7867L38.1728 45.4454L39.4321 43.642L36.9725 41.9244ZM38.7623 42.4858L36.092 41.1186L34.4715 44.2834L37.8639 45.3481L38.7623 42.4858ZM39.1961 41.0305L36.2129 40.7136L36.2128 40.7147L39.1961 41.0305ZM35.5038 36.4639L35.188 39.4473L35.188 39.4473L35.5038 36.4639ZM32.456 37.3643L30.5698 35.0314L30.5697 35.0315L32.456 37.3643ZM30.9532 40.0351L30.0549 42.8975L33.4508 43.9632L33.9263 40.4359L30.9532 40.0351ZM25.6035 38.3563L23.1778 36.5911L20.7203 39.9681L24.7052 41.2186L25.6035 38.3563ZM27.151 36.2297L29.5767 37.9949L29.5772 37.9943L27.151 36.2297ZM26.95 34.9545L25.185 37.3803L25.1853 37.3806L26.95 34.9545ZM25.6748 35.1555L23.2492 33.3902L23.2491 33.3903L25.6748 35.1555ZM23.7654 37.7795L22.8671 40.6419L24.9231 41.2871L26.1911 39.5447L23.7654 37.7795ZM9.85181 33.413L7.53856 31.5028L4.69986 34.9405L8.95352 36.2754L9.85181 33.413ZM10.6605 32.0299L13.4603 33.1072L13.4604 33.1071L10.6605 32.0299ZM31.3301 10.2814L30.1125 7.53961L30.112 7.53983L31.3301 10.2814ZM32.2534 9.74573L35.0526 8.66669L33.643 5.01001L30.4811 7.32521L32.2534 9.74573ZM33.1868 12.1673L33.6078 15.1376L37.3429 14.6082L35.986 11.0882L33.1868 12.1673ZM31.1661 13.0501L33.0522 15.3831L33.0524 15.3829L31.1661 13.0501ZM29.6476 15.8419L32.6309 16.1582L32.631 16.1575L29.6476 15.8419ZM30.5478 18.8898L28.2148 20.7758L28.215 20.776L30.5478 18.8898ZM33.3398 20.4084L33.0238 23.3917L33.0242 23.3918L33.3398 20.4084ZM36.0983 19.7203L38.8975 18.6412L37.5425 15.126L34.4199 17.2337L36.0983 19.7203ZM40.4314 30.961L41.6495 33.7025L44.2569 32.5441L43.2306 29.8819L40.4314 30.961ZM39.4044 31.4173L38.1863 28.6757L38.1857 28.6759L39.4044 31.4173ZM38.9409 32.6222L36.1988 33.8392L36.1993 33.8402L38.9409 32.6222ZM40.1458 33.0857L41.3638 35.8273L41.3638 35.8273L40.1458 33.0857ZM41.0889 32.6667L43.8881 31.5876L42.7535 28.6444L39.8708 29.9251L41.0889 32.6667ZM45.7153 44.6681L44.8169 47.5304L50.7519 49.3931L48.5145 43.589L45.7153 44.6681ZM50.102 48.7827C51.1271 47.6896 51.4419 46.1011 50.8974 44.6945L45.302 46.8605C45.0104 46.1073 45.1797 45.2601 45.7255 44.6782L50.102 48.7827ZM50.8989 44.6984L36.4204 7.13936L30.822 9.29748L45.3005 46.8566L50.8989 44.6984ZM36.2196 9.71792C37.4477 7.58984 37.6884 4.90624 36.6074 2.47255L31.124 4.90818C31.3896 5.50599 31.3382 6.17245 31.0228 6.71892L36.2196 9.71792ZM36.6072 2.47213C34.8164 -1.55789 30.0872 -3.37749 26.0569 -1.58684L28.493 3.89633C29.4951 3.45111 30.6789 3.90658 31.1242 4.90859L36.6072 2.47213ZM26.0567 -1.58678C19.7638 1.20953 14.1627 5.16153 9.41877 10.1531L13.7679 14.2865C17.969 9.86611 22.9202 6.37268 28.4932 3.89627L26.0567 -1.58678ZM9.41877 10.1531C4.67482 15.1447 1.01253 20.9393 -1.46019 27.3664L4.13967 29.5209C6.32946 23.8292 9.56675 18.707 13.7679 14.2865L9.41877 10.1531ZM-1.46027 27.3667C-1.8464 28.3705 -2.01685 29.4115 -1.99086 30.4333L4.0072 30.2807C4.00086 30.0315 4.04179 29.7754 4.13975 29.5207L-1.46027 27.3667ZM-1.99085 30.4334C-1.91119 33.5601 0.0147813 36.4985 3.13014 37.6969L5.28427 32.0969C4.51864 31.8024 4.0274 31.0733 4.0072 30.2806L-1.99085 30.4334ZM3.13007 37.6969C5.22472 38.5027 7.45347 38.3612 9.33476 37.4974L6.83123 32.0447C6.35061 32.2653 5.80087 32.2957 5.28434 32.0969L3.13007 37.6969ZM7.18468 37.6334L46.0763 49.8391L47.873 44.1144L8.98131 31.9087L7.18468 37.6334ZM46.0764 49.8391C47.509 50.2887 49.0734 49.879 50.1016 48.7831L45.7259 44.6778C46.2746 44.093 47.109 43.8747 47.8729 44.1144L46.0764 49.8391ZM31.0766 15.0336L32.6109 19.0142L38.2094 16.8563L36.6751 12.8757L31.0766 15.0336ZM33.3021 15.8008C33.4438 15.6608 33.6445 15.588 33.8477 15.6095L33.2162 21.5761C34.8232 21.7462 36.3956 21.1784 37.5182 20.0697L33.3021 15.8008ZM33.8484 15.6095C34.0209 15.6278 34.1906 15.72 34.3002 15.8554L29.6348 19.6282C30.5259 20.7302 31.8069 21.4267 33.2155 21.5761L33.8484 15.6095ZM34.3002 15.8554C34.4102 15.9915 34.4645 16.1774 34.4464 16.3488L28.4796 15.7191C28.3309 17.1275 28.7432 18.5257 29.6348 19.6282L34.3002 15.8554ZM34.4463 16.35C34.428 16.5229 34.3356 16.6929 34.2001 16.8025L30.4277 12.1368C29.3255 13.028 28.6289 14.3091 28.4797 15.7179L34.4463 16.35ZM34.2001 16.8025C34.076 16.9029 33.908 16.959 33.744 16.9517L34.0077 10.9576C32.7101 10.9004 31.4424 11.3164 30.4277 12.1368L34.2001 16.8025ZM5.94002 30.393C5.89989 30.3775 5.86907 30.3504 5.84843 30.304C5.8278 30.2576 5.82842 30.2167 5.84374 30.1769L0.244211 28.0216C-0.978447 31.1981 0.609213 34.7709 3.78573 35.9929L5.94002 30.393ZM5.84392 30.1764C10.1007 19.1117 18.4005 10.3788 29.2346 5.56481L26.7982 0.0817249C14.51 5.54183 5.07224 15.4721 0.244039 28.022L5.84392 30.1764ZM29.2346 5.56481C29.2633 5.55204 29.284 5.54908 29.2982 5.54872C29.3125 5.54836 29.3334 5.55026 29.3628 5.5616L31.5171 -0.0383385C29.9848 -0.62777 28.2986 -0.584933 26.7982 0.0817268L29.2346 5.56481ZM29.3627 5.56155C29.3921 5.57285 29.4088 5.58536 29.4192 5.59522C29.4295 5.60509 29.4429 5.62113 29.4557 5.64989L34.9387 3.21354C34.2721 1.71327 33.0494 0.551205 31.5172 -0.038294L29.3627 5.56155ZM29.4557 5.64989C29.4684 5.6786 29.4714 5.69926 29.4717 5.71358C29.4721 5.72791 29.4702 5.74868 29.4589 5.77801L35.0588 7.93248C35.6483 6.40023 35.6054 4.71384 34.9387 3.21354L29.4557 5.64989ZM29.4589 5.77801C29.4476 5.80738 29.4351 5.82408 29.4252 5.83446C29.4154 5.84484 29.3993 5.85818 29.3706 5.87096L31.8069 11.354C33.3072 10.6874 34.4693 9.46469 35.0588 7.93248L29.4589 5.77801ZM29.3706 5.87093C24.0619 8.22968 19.3362 11.5642 15.3342 15.7751L19.6834 19.9084C23.1426 16.2687 27.2182 13.3929 31.8069 11.3541L29.3706 5.87093ZM15.3342 15.7751C11.3322 19.9859 8.24237 24.875 6.15647 30.2967L11.7563 32.4512C13.5593 27.7648 16.2242 23.5482 19.6834 19.9084L15.3342 15.7751ZM6.15639 30.297C6.14093 30.3371 6.11385 30.3679 6.06754 30.3885C6.02123 30.409 5.98033 30.4085 5.94027 30.3931L3.78548 35.9928C6.96205 37.2152 10.5345 35.6276 11.7564 32.451L6.15639 30.297ZM35.7418 40.5931C35.7418 40.5843 35.7419 40.5871 35.7415 40.5979C35.741 40.609 35.7398 40.6308 35.7367 40.6608L29.7693 40.0357C29.746 40.2587 29.7416 40.4544 29.7418 40.5998L35.7418 40.5931ZM35.7363 40.6643C35.718 40.8374 35.6256 41.0074 35.49 41.117L31.7178 36.4511C30.6157 37.3421 29.919 38.6232 29.7697 40.0322L35.7363 40.6643ZM35.4903 41.1167C35.3547 41.2264 35.1692 41.2811 34.9961 41.2628L35.6273 35.2961C34.2183 35.1471 32.8196 35.5601 31.7175 36.4513L35.4903 41.1167ZM34.9957 41.2628C34.6237 41.2234 34.358 40.8938 34.3972 40.5231L40.3639 41.1535C40.6728 38.2304 38.5513 35.6058 35.6276 35.2962L34.9957 41.2628ZM34.3972 40.5226C34.4105 40.3973 34.4549 40.2898 34.5129 40.2067L39.4321 43.642C39.9372 42.9188 40.2673 42.0667 40.3639 41.1541L34.3972 40.5226ZM37.8709 39.0621L33.6402 37.7341L31.8434 43.4588L36.0741 44.7867L37.8709 39.0621ZM41.4326 43.8531C41.8291 43.0788 42.0859 42.2302 42.1794 41.3462L36.2128 40.7147C36.1979 40.8547 36.1571 40.9914 36.092 41.1186L41.4326 43.8531ZM42.1793 41.3473C42.5964 37.4207 39.7432 33.896 35.8197 33.4806L35.188 39.4473C35.8184 39.514 36.2795 40.0859 36.2129 40.7136L42.1793 41.3473ZM35.8197 33.4806C33.9255 33.2801 32.051 33.8338 30.5698 35.0314L34.3422 39.6971C34.586 39.5 34.8763 39.4143 35.188 39.4473L35.8197 33.4806ZM30.5697 35.0315C29.1423 36.1856 28.2244 37.8222 27.9801 39.6344L33.9263 40.4359C33.9663 40.1396 34.1081 39.8864 34.3422 39.6971L30.5697 35.0315ZM31.8515 37.1728L26.5017 35.4939L24.7052 41.2186L30.0549 42.8975L31.8515 37.1728ZM28.0292 40.1215L29.5767 37.9949L24.7253 34.4645L23.1778 36.5911L28.0292 40.1215ZM29.5772 37.9943C30.847 36.2484 30.4638 33.8007 28.7147 32.5284L25.1853 37.3806C24.2516 36.7014 24.0479 35.3958 24.7249 34.4651L29.5772 37.9943ZM28.715 32.5286C26.9676 31.2572 24.5206 31.6432 23.2492 33.3902L28.1005 36.9208C27.4223 37.8526 26.1171 38.0585 25.185 37.3803L28.715 32.5286ZM23.2491 33.3903L21.3396 36.0144L26.1911 39.5447L28.1006 36.9206L23.2491 33.3903ZM24.6636 34.9172L10.7501 30.5507L8.95352 36.2754L22.8671 40.6419L24.6636 34.9172ZM12.1651 35.3233C12.6986 34.6772 13.142 33.9345 13.4603 33.1072L7.86058 30.9526C7.78197 31.1569 7.67298 31.3401 7.53856 31.5028L12.1651 35.3233ZM13.4604 33.1071C16.9347 24.0767 23.7063 16.9516 32.5482 13.0229L30.112 7.53983C19.8158 12.1147 11.9062 20.4371 7.86053 30.9527L13.4604 33.1071ZM32.5478 13.0232C33.0843 12.7849 33.5773 12.4945 34.0257 12.1663L30.4811 7.32521C30.3643 7.41071 30.2416 7.48227 30.1125 7.53961L32.5478 13.0232ZM29.4541 10.8248L30.3876 13.2463L35.986 11.0882L35.0526 8.66669L29.4541 10.8248ZM32.7658 9.19696C31.4925 9.37744 30.2915 9.8993 29.2799 10.7173L33.0524 15.3829C33.2238 15.2443 33.413 15.1652 33.6078 15.1376L32.7658 9.19696ZM29.2801 10.7171C27.7986 11.9148 26.8647 13.6321 26.6643 15.5263L32.631 16.1575C32.664 15.8458 32.8086 15.58 33.0522 15.3831L29.2801 10.7171ZM26.6644 15.5256C26.6311 15.8397 26.6183 16.1547 26.6263 16.4695L32.6244 16.317C32.6231 16.2664 32.625 16.2136 32.6309 16.1582L26.6644 15.5256ZM26.6263 16.4695C26.6662 18.0398 27.2207 19.5462 28.2148 20.7758L32.8808 17.0037C32.7139 16.7973 32.6306 16.5623 32.6244 16.317L26.6263 16.4695ZM28.215 20.776C29.4128 22.2574 31.1297 23.1911 33.0238 23.3917L33.6558 17.4251C33.3437 17.3921 33.0778 17.2474 32.8806 17.0035L28.215 20.776ZM33.0242 23.3918C34.7317 23.5724 36.4072 23.1313 37.7767 22.2068L34.4199 17.2337C34.1962 17.3847 33.9283 17.454 33.6554 17.4251L33.0242 23.3918ZM33.2991 20.7993L37.6322 32.04L43.2306 29.8819L38.8975 18.6412L33.2991 20.7993ZM39.2133 28.2194L38.1863 28.6757L40.6225 34.1588L41.6495 33.7025L39.2133 28.2194ZM38.1857 28.6759C36.6918 29.3401 35.8244 30.8222 35.8633 32.3513L41.8613 32.1988C41.882 33.0117 41.4216 33.8036 40.6231 34.1586L38.1857 28.6759ZM35.8633 32.3513C35.8761 32.8556 35.9868 33.3614 36.1988 33.8392L41.6829 31.4051C41.7946 31.6568 41.8544 31.9272 41.8613 32.1988L35.8633 32.3513ZM36.1993 33.8402C37.0768 35.8154 39.3894 36.7045 41.3638 35.8273L38.9278 30.3441C39.9808 29.8763 41.2143 30.3502 41.6825 31.4042L36.1993 33.8402ZM41.3638 35.8273L42.3069 35.4083L39.8708 29.9251L38.9277 30.3441L41.3638 35.8273ZM38.2897 33.7458L42.916 45.7471L48.5145 43.589L43.8881 31.5876L38.2897 33.7458ZM46.6136 41.8057L39.6607 39.6235L37.8639 45.3481L44.8169 47.5304L46.6136 41.8057Z" fill="white" mask="url(#path-1-inside-1_736_59)"/>
<path d="M21.9244 9.50787C21.925 9.50747 21.9256 9.50707 21.9262 9.50667C22.192 9.32922 22.5504 9.39682 22.7335 9.65755L22.2625 9.98871L22.2617 9.98928L22.2617 9.98928L22.2598 9.99059L22.2579 9.99196L22.255 9.99397L22.2528 9.99555L22.2526 9.99566L22.2514 9.99651L22.2451 10.001L21.778 10.3293C21.7762 10.3268 21.7744 10.3242 21.7726 10.3216C21.7726 10.3216 21.7726 10.3216 21.7726 10.3216C21.7082 10.2268 21.6752 10.119 21.6717 10.0113C21.6658 9.82934 21.744 9.64739 21.8975 9.52756C21.9047 9.52194 21.9121 9.51645 21.9196 9.51111L21.9092 9.51841L21.8973 9.5272L21.9111 9.51716L21.9167 9.5132L21.919 9.51159L21.9196 9.51115L21.9198 9.51104L21.9204 9.51063L21.9214 9.50992L21.9215 9.50989L21.9218 9.50967L21.9222 9.50937L21.9244 9.50787ZM22.2648 9.98715L22.7335 9.65757C22.7353 9.66006 22.737 9.66258 22.7387 9.66511C22.7387 9.66512 22.7388 9.66512 22.7388 9.66513C22.8033 9.76013 22.8374 9.8715 22.8402 9.98154C22.8448 10.1648 22.7612 10.3527 22.5981 10.4711C22.5968 10.472 22.5955 10.473 22.5942 10.4739C22.5938 10.4742 22.5933 10.4745 22.5929 10.4748C22.5919 10.4755 22.591 10.4762 22.59 10.4769C22.5886 10.4778 22.5872 10.4788 22.5858 10.4798C22.5851 10.4802 22.5844 10.4807 22.5837 10.4811C22.5834 10.4813 22.5831 10.4815 22.5828 10.4817C22.3203 10.656 21.9631 10.5925 21.778 10.3294L22.2451 10.001L22.2515 9.99651L22.2526 9.9957L22.2528 9.99559L22.255 9.99401L22.2579 9.99199L22.2599 9.99063L22.264 9.98771L22.264 9.98771L22.2648 9.98715Z" fill="white" stroke="white" stroke-width="3"/>
<path d="M24.2203 8.02207C24.2203 8.02206 24.2203 8.02206 24.2203 8.02206L24.2203 8.02207Z" fill="white" stroke="white" stroke-width="3"/>
<path d="M31.5105 32.4951L31.4763 32.8189M31.5105 32.4951L36.0426 29.1268C36.062 28.9453 36.0693 28.7613 36.0647 28.5799C36.012 26.5069 34.4152 24.7788 32.3506 24.5602C30.0737 24.3192 28.0251 25.9754 27.784 28.2523C27.7647 28.4338 27.7573 28.6178 27.7619 28.7992C27.8147 30.8721 29.4114 32.6003 31.4763 32.8189M31.5105 32.4951L31.4763 32.8189M31.5105 32.4951L31.4763 32.8189" fill="white" stroke="white" stroke-width="3"/>
<mask id="path-6-inside-2_736_59" fill="white">
<path d="M24.6855 29.1779C24.7048 28.9963 24.7122 28.8124 24.7075 28.631C24.6548 26.558 23.0581 24.8298 20.9933 24.6113C19.8903 24.4945 18.808 24.8142 17.9453 25.5116C17.0828 26.2089 16.5435 27.2004 16.4267 28.3034C16.4074 28.4848 16.4002 28.6687 16.4048 28.85C16.4575 30.9231 18.0542 32.6513 20.1191 32.8699C22.3958 33.111 24.4442 31.4547 24.6855 29.1779ZM20.3112 31.0545C19.1541 30.932 18.2594 29.9644 18.2299 28.8038C18.2273 28.7019 18.2315 28.5981 18.2423 28.4957C18.3079 27.8777 18.61 27.3221 19.0933 26.9314C19.5765 26.5406 20.183 26.3614 20.8012 26.4269C21.9581 26.5494 22.8528 27.5169 22.8824 28.6774C22.885 28.7794 22.8808 28.8832 22.8699 28.9856C22.7348 30.2614 21.587 31.1894 20.3112 31.0545Z"/>
</mask>
<path d="M24.6855 29.1779C24.7048 28.9963 24.7122 28.8124 24.7075 28.631C24.6548 26.558 23.0581 24.8298 20.9933 24.6113C19.8903 24.4945 18.808 24.8142 17.9453 25.5116C17.0828 26.2089 16.5435 27.2004 16.4267 28.3034C16.4074 28.4848 16.4002 28.6687 16.4048 28.85C16.4575 30.9231 18.0542 32.6513 20.1191 32.8699C22.3958 33.111 24.4442 31.4547 24.6855 29.1779ZM20.3112 31.0545C19.1541 30.932 18.2594 29.9644 18.2299 28.8038C18.2273 28.7019 18.2315 28.5981 18.2423 28.4957C18.3079 27.8777 18.61 27.3221 19.0933 26.9314C19.5765 26.5406 20.183 26.3614 20.8012 26.4269C21.9581 26.5494 22.8528 27.5169 22.8824 28.6774C22.885 28.7794 22.8808 28.8832 22.8699 28.9856C22.7348 30.2614 21.587 31.1894 20.3112 31.0545Z" fill="white"/>
<path d="M24.6855 29.1779L21.7023 28.8607L21.7022 28.8618L24.6855 29.1779ZM20.9933 24.6113L20.6772 27.5946L20.6776 27.5947L20.9933 24.6113ZM17.9453 25.5116L19.8314 27.8446L19.8314 27.8446L17.9453 25.5116ZM16.4267 28.3034L19.41 28.6195L19.41 28.6195L16.4267 28.3034ZM20.1191 32.8699L20.4351 29.8866L20.4349 29.8865L20.1191 32.8699ZM20.3112 31.0545L19.9953 34.0378L19.9956 34.0379L20.3112 31.0545ZM18.2423 28.4957L15.259 28.1793L15.2589 28.1804L18.2423 28.4957ZM20.8012 26.4269L21.1171 23.4436L21.1171 23.4436L20.8012 26.4269ZM22.8699 28.9856L19.8868 28.668L19.8866 28.6697L22.8699 28.9856ZM27.6687 29.4951C27.7019 29.1829 27.7145 28.8676 27.7066 28.5547L21.7085 28.7073C21.7098 28.7573 21.7077 28.8097 21.7023 28.8607L27.6687 29.4951ZM27.7066 28.5547C27.6155 24.9739 24.8682 22.0046 21.309 21.628L20.6776 27.5947C21.248 27.655 21.6941 28.1421 21.7085 28.7073L27.7066 28.5547ZM21.3094 21.628C19.4149 21.4273 17.5405 21.9811 16.0593 23.1786L19.8314 27.8446C20.0754 27.6473 20.3657 27.5616 20.6772 27.5946L21.3094 21.628ZM16.0593 23.1786C14.5778 24.3763 13.644 26.0933 13.4434 27.9873L19.41 28.6195C19.443 28.3074 19.5878 28.0415 19.8314 27.8446L16.0593 23.1786ZM13.4434 27.9873C13.4103 28.2996 13.3978 28.6146 13.4057 28.9263L19.4038 28.7737C19.4025 28.7228 19.4046 28.67 19.41 28.6195L13.4434 27.9873ZM13.4057 28.9263C13.4968 32.5071 16.2441 35.4764 19.8033 35.8532L20.4349 29.8865C19.8644 29.8261 19.4182 29.339 19.4038 28.7737L13.4057 28.9263ZM19.8031 35.8532C23.7278 36.2689 27.253 33.418 27.6688 29.494L21.7022 28.8618C21.6355 29.4914 21.0639 29.9532 20.4351 29.8866L19.8031 35.8532ZM20.6271 28.0712C20.9622 28.1067 21.22 28.3781 21.2289 28.7275L15.2308 28.8801C15.2988 31.5506 17.3461 33.7573 19.9953 34.0378L20.6271 28.0712ZM21.2289 28.7275C21.2297 28.7582 21.2284 28.7853 21.2257 28.8111L15.2589 28.1804C15.2346 28.4109 15.2249 28.6455 15.2308 28.8801L21.2289 28.7275ZM21.2256 28.8122C21.2073 28.9849 21.115 29.1546 20.9797 29.2641L17.2069 24.5987C16.1051 25.4897 15.4085 26.7706 15.259 28.1793L21.2256 28.8122ZM20.9797 29.2641C20.844 29.3738 20.6583 29.4285 20.4852 29.4102L21.1171 23.4436C19.7078 23.2943 18.309 23.7074 17.2069 24.5987L20.9797 29.2641ZM20.4852 29.4102C20.1502 29.3747 19.8922 29.1033 19.8833 28.7537L25.8814 28.6011C25.8135 25.9306 23.766 23.7241 21.1171 23.4436L20.4852 29.4102ZM19.8833 28.7537C19.8826 28.7249 19.8837 28.697 19.8868 28.668L25.8531 29.3033C25.878 29.0694 25.8873 28.834 25.8814 28.6011L19.8833 28.7537ZM19.8866 28.6697C19.926 28.2978 20.2551 28.0319 20.6267 28.0711L19.9956 34.0379C22.9188 34.347 25.5436 32.2249 25.8532 29.3016L19.8866 28.6697Z" fill="white" mask="url(#path-6-inside-2_736_59)"/>
<path d="M28.3128 23.0632L28.3109 23.063L28.3128 23.0632ZM28.6107 20.249L28.6107 20.2491L28.6107 20.249Z" fill="white" stroke="white" stroke-width="3"/>
<mask id="path-9-inside-3_736_59" fill="white">
<path d="M21.5425 21.812L23.4182 21.5164C23.9162 21.4379 24.2564 20.9707 24.1778 20.4727C24.0993 19.9746 23.632 19.6346 23.134 19.7131L21.2583 20.0087C20.8005 20.0808 20.4762 20.4814 20.4877 20.9324C20.4887 20.9721 20.4923 21.0122 20.4987 21.0524C20.5772 21.5504 21.0444 21.8905 21.5425 21.812Z"/>
</mask>
<path d="M21.5425 21.812L23.4182 21.5164C23.9162 21.4379 24.2564 20.9707 24.1778 20.4727C24.0993 19.9746 23.632 19.6346 23.134 19.7131L21.2583 20.0087C20.8005 20.0808 20.4762 20.4814 20.4877 20.9324C20.4887 20.9721 20.4923 21.0122 20.4987 21.0524C20.5772 21.5504 21.0444 21.8905 21.5425 21.812Z" fill="white"/>
<path d="M21.5425 21.812L21.0755 18.8485L21.0753 18.8486L21.5425 21.812ZM23.4182 21.5164L23.8851 24.4799L23.8853 24.4799L23.4182 21.5164ZM24.1778 20.4727L21.2143 20.9398L21.2145 20.9409L24.1778 20.4727ZM23.134 19.7131L23.601 22.6765L23.6011 22.6765L23.134 19.7131ZM21.2583 20.0087L21.725 22.9722L21.7253 22.9722L21.2583 20.0087ZM20.4987 21.0524L23.4621 20.5853L23.4613 20.58L20.4987 21.0524ZM22.0094 24.7754L23.8851 24.4799L22.9513 18.553L21.0755 18.8485L22.0094 24.7754ZM23.8853 24.4799C26.0187 24.1436 27.4786 22.1412 27.141 20.0045L21.2145 20.9409C21.0343 19.8002 21.8137 18.7323 22.9511 18.553L23.8853 24.4799ZM27.1412 20.0056C26.8047 17.8711 24.8018 16.4132 22.6669 16.7497L23.6011 22.6765C22.4622 22.856 21.3938 22.0782 21.2143 20.9398L27.1412 20.0056ZM22.6669 16.7497L20.7912 17.0453L21.7253 22.9722L23.601 22.6765L22.6669 16.7497ZM20.7915 17.0453C18.8269 17.3547 17.4394 19.0725 17.4887 21.0087L23.4867 20.8561C23.513 21.8903 22.7742 22.807 21.725 22.9722L20.7915 17.0453ZM17.4887 21.0087C17.4929 21.1771 17.5082 21.3497 17.5361 21.5248L23.4613 20.58C23.4764 20.6748 23.4845 20.7671 23.4867 20.8561L17.4887 21.0087ZM17.5353 21.5195C17.8717 23.6539 19.8746 25.1119 22.0096 24.7754L21.0753 18.8486C22.2142 18.669 23.2827 19.4469 23.4621 20.5853L17.5353 21.5195Z" fill="white" mask="url(#path-9-inside-3_736_59)"/>
</svg>
