<svg width="16" height="19" viewBox="0 0 16 19" fill="none" xmlns="http://www.w3.org/2000/svg">
<path d="M13.9998 19H1.99997C0.895419 19 0 18.1493 0 17.1V1.9C0 0.850659 0.895419 0 1.99997 0H8.99989C9.01078 0.000448703 9.02156 0.00236793 9.03188 0.0057C9.04165 0.00856638 9.05171 0.0104763 9.06188 0.0114C9.15007 0.0167705 9.23714 0.0330582 9.32088 0.05985L9.34888 0.0684C9.37154 0.0756979 9.39361 0.0845891 9.41488 0.095C9.52382 0.141002 9.62309 0.205375 9.70788 0.285L15.7078 5.985C15.7916 6.06555 15.8594 6.15985 15.9078 6.26335C15.9178 6.28425 15.9248 6.3061 15.9328 6.32795L15.9418 6.35265C15.9697 6.43187 15.9862 6.51432 15.9908 6.59775C15.9923 6.60648 15.9947 6.61506 15.9978 6.6234C15.9996 6.63216 16.0002 6.64109 15.9999 6.65V17.1C15.9999 18.1493 15.1044 19 13.9998 19ZM1.99997 1.9V17.1H13.9998V7.6H8.99989C8.44761 7.6 7.9999 7.17467 7.9999 6.65V1.9H1.99997ZM9.99987 3.2433V5.7H12.5858L9.99987 3.2433Z" fill="white"/>
</svg>
