<svg width="40" height="31" viewBox="0 0 40 31" fill="none" xmlns="http://www.w3.org/2000/svg">
<path d="M36.649 9.84591C36.1056 7.16096 33.7278 5.13323 30.8851 5.13323C30.0291 5.13323 29.1924 5.3206 28.4281 5.67215L28.1544 4.79258C27.6596 3.20175 26.4969 1.9141 24.9647 1.25992C23.4326 0.605657 21.6985 0.656278 20.2072 1.39885C19.1222 1.93902 17.8278 1.84822 16.8291 1.16187L16.5901 0.997699C15.4748 0.231293 14.1194 -0.111764 12.7738 0.0320789C11.4281 0.175843 10.1758 0.797317 9.24758 1.7821L6.45725 4.74212L2.61743 3.31055V9.84591H0V14.1317C0 20.8323 3.33859 27.0471 8.93077 30.7564L9.22429 30.9511H30.6496L30.9432 30.7564C36.5354 27.0471 39.874 20.8324 39.874 14.1317V9.84591H36.649ZM34.2307 9.84591H30.4136C30.2585 9.07927 29.9539 8.36621 29.5315 7.73867C29.957 7.56281 30.4162 7.46959 30.885 7.46959C32.4302 7.46967 33.7468 8.46387 34.2307 9.84591ZM27.9955 9.84591H21.3039C21.7879 8.46387 23.1045 7.46959 24.6497 7.46959C26.1949 7.46967 27.5114 8.46387 27.9955 9.84591ZM10.9477 3.38461C12.0846 2.17873 13.9009 1.98443 15.2668 2.92318L15.5058 3.08735C17.2037 4.25421 19.4043 4.40864 21.2486 3.49029C22.1259 3.05339 23.146 3.02356 24.0472 3.40852C24.8726 3.76092 25.5147 4.4264 25.8407 5.25456C25.456 5.17513 25.0576 5.13315 24.6497 5.13315C21.9613 5.13315 19.6901 6.9471 18.9916 9.41485L8.83311 5.62768L10.9477 3.38461ZM4.9538 6.67499L13.4593 9.84591H4.9538V6.67499ZM2.33637 12.1823H37.5376C37.5376 12.1823 37.5345 14.3923 37.5316 14.5225H2.34236C2.33948 14.3924 2.33637 12.1823 2.33637 12.1823ZM29.9392 28.6147H9.93478C5.92721 25.8431 3.28641 21.5911 2.54804 16.8588H37.3259C36.5876 21.5911 33.9468 25.843 29.9392 28.6147Z" fill="white"/>
</svg>
