<svg width="15" height="20" viewBox="0 0 15 20" fill="none" xmlns="http://www.w3.org/2000/svg">
<path d="M7.49996 20C6.14668 18.8032 4.89232 17.4911 3.74998 16.0775C2.03571 13.9546 9.46776e-07 10.793 9.46776e-07 7.7803C-0.0015185 4.63378 1.82597 1.79641 4.62969 0.592222C7.43342 -0.611966 10.6607 0.0543809 12.8056 2.28032C14.2161 3.73625 15.0063 5.71671 15 7.7803C15 10.793 12.9642 13.9546 11.2499 16.0775C10.1076 17.4911 8.85324 18.8032 7.49996 20ZM7.49996 2.22589C4.54278 2.22956 2.14639 4.7142 2.14285 7.7803C2.14285 9.07559 2.70749 11.3185 5.39462 14.6522C6.0569 15.4721 6.75962 16.256 7.49996 17.0006C8.24036 16.2568 8.94343 15.4741 9.60638 14.6555C12.2924 11.3173 12.8571 9.07448 12.8571 7.7803C12.8535 4.7142 10.4571 2.22956 7.49996 2.22589ZM7.49996 11.1129C5.72477 11.1129 4.28569 9.62087 4.28569 7.7803C4.28569 5.93973 5.72477 4.44765 7.49996 4.44765C9.27516 4.44765 10.7142 5.93973 10.7142 7.7803C10.7142 8.66417 10.3756 9.51184 9.7728 10.1368C9.17 10.7618 8.35244 11.1129 7.49996 11.1129Z" fill="white"/>
</svg>
