<svg width="19" height="16" viewBox="0 0 19 16" fill="none" xmlns="http://www.w3.org/2000/svg">
<path d="M10.8333 0.35C6.65892 0.35 3.2647 3.6947 3.18475 7.85H0.833313H0.471181L0.727247 8.10607L3.9517 11.3305L3.99915 11.4254L4.0921 11.6113L4.23925 11.4645L7.60591 8.1062L7.86275 7.85H7.49998H5.15191C5.23126 4.77736 7.74131 2.31667 10.8333 2.31667C13.9755 2.31667 16.5166 4.85784 16.5166 8C16.5166 11.1422 13.9755 13.6833 10.8333 13.6833C9.26669 13.6833 7.84621 13.0422 6.82313 12.011L6.71707 11.9041L6.61058 12.0106L5.42725 13.1939L5.32118 13.3L5.42725 13.4061C6.81237 14.7912 8.71667 15.65 10.8333 15.65C15.0578 15.65 18.4833 12.2245 18.4833 8C18.4833 3.77549 15.0578 0.35 10.8333 0.35ZM9.99998 4.51667H9.84998V4.66667V8.83333V8.91878L9.92348 8.96236L13.4651 11.0624L13.5933 11.1384L13.6702 11.0107L14.3118 9.94399L14.3896 9.81471L14.2599 9.73769L11.4 8.03961V4.66667V4.51667H11.25H9.99998Z" fill="#2E3A59" stroke="#2E3A59" stroke-width="0.3"/>
</svg>
